<svg width="24" height="34" viewBox="0 0 24 34" fill="none" xmlns="http://www.w3.org/2000/svg">
<path d="M4.64798 32.4206L4.64414 32.4169L2.17226 30.0333C1.54976 29.433 1.55543 28.4861 2.16841 27.9013L2.17226 27.8976L12.716 17.7304L13.4625 17.0106L12.716 16.2907L2.17226 6.12354C1.54976 5.52327 1.55543 4.57633 2.1684 3.99154L2.16845 3.99159L2.17701 3.98323L4.63531 1.58112C5.27832 0.963286 6.32281 0.969204 6.9489 1.57943L6.95274 1.58315L21.8277 15.9269L21.8316 15.9306C22.4585 16.5287 22.4582 17.4757 21.8387 18.0731L6.96368 32.4169C6.32084 33.0368 5.27475 33.0315 4.64798 32.4206Z" fill="white" stroke="#EE6400" stroke-width="2"/>
</svg>
