<svg width="25" height="27" viewBox="0 0 25 27" fill="none" xmlns="http://www.w3.org/2000/svg">
<path d="M12.8177 7.43556C9.46379 7.43556 6.75852 10.1408 6.75852 13.4947C6.75852 16.8486 9.46379 19.5539 12.8177 19.5539C16.1716 19.5539 18.8769 16.8486 18.8769 13.4947C18.8769 10.1408 16.1716 7.43556 12.8177 7.43556ZM12.8177 17.434C10.6503 17.434 8.87844 15.6674 8.87844 13.4947C8.87844 11.3221 10.645 9.55548 12.8177 9.55548C14.9904 9.55548 16.757 11.3221 16.757 13.4947C16.757 15.6674 14.9851 17.434 12.8177 17.434ZM20.538 7.18771C20.538 7.97345 19.9052 8.60099 19.1247 8.60099C18.339 8.60099 17.7115 7.96818 17.7115 7.18771C17.7115 6.40724 18.3443 5.77443 19.1247 5.77443C19.9052 5.77443 20.538 6.40724 20.538 7.18771ZM24.5511 8.62208C24.4615 6.72892 24.029 5.05197 22.6421 3.67032C21.2605 2.28868 19.5835 1.85626 17.6904 1.76134C15.7392 1.6506 9.89094 1.6506 7.93977 1.76134C6.05188 1.85099 4.37493 2.28341 2.98801 3.66505C1.6011 5.04669 1.17395 6.72364 1.07903 8.61681C0.968286 10.568 0.968286 16.4162 1.07903 18.3674C1.16868 20.2606 1.6011 21.9375 2.98801 23.3192C4.37493 24.7008 6.04661 25.1332 7.93977 25.2281C9.89094 25.3389 15.7392 25.3389 17.6904 25.2281C19.5835 25.1385 21.2605 24.7061 22.6421 23.3192C24.0238 21.9375 24.4562 20.2606 24.5511 18.3674C24.6618 16.4162 24.6618 10.5733 24.5511 8.62208ZM22.0304 20.4609C21.6191 21.4945 20.8228 22.2908 19.7839 22.7074C18.2282 23.3244 14.5368 23.182 12.8177 23.182C11.0986 23.182 7.40188 23.3192 5.85149 22.7074C4.8179 22.2961 4.02161 21.4998 3.60501 20.4609C2.98801 18.9053 3.1304 15.2139 3.1304 13.4947C3.1304 11.7756 2.99329 8.07892 3.60501 6.52853C4.01633 5.49493 4.81262 4.69864 5.85149 4.28204C7.40715 3.66505 11.0986 3.80743 12.8177 3.80743C14.5368 3.80743 18.2335 3.67032 19.7839 4.28204C20.8175 4.69337 21.6138 5.48966 22.0304 6.52853C22.6474 8.08419 22.505 11.7756 22.505 13.4947C22.505 15.2139 22.6474 18.9106 22.0304 20.4609Z" fill="url(#paint0_linear)"/>
<defs>
<linearGradient id="paint0_linear" x1="24.625" y1="-1.68745" x2="-1.25005" y2="26.4376" gradientUnits="userSpaceOnUse">
<stop stop-color="#893DC2"/>
<stop offset="0.338542" stop-color="#BD309C"/>
<stop offset="0.739583" stop-color="#F16B39"/>
<stop offset="1" stop-color="#FCAC49"/>
</linearGradient>
</defs>
</svg>
