<svg width="39" height="24" viewBox="0 0 39 24" fill="none" xmlns="http://www.w3.org/2000/svg">
<path d="M24.6667 2.56665H14.1667V21.4333H24.6667V2.56665Z" fill="#FF5F00"/>
<path d="M14.8333 12C14.8333 8.16667 16.6333 4.76667 19.4 2.56667C17.3667 0.966671 14.8 0 12 0C5.36667 0 0 5.36667 0 12C0 18.6333 5.36667 24 12 24C14.8 24 17.3667 23.0333 19.4 21.4333C16.6333 19.2667 14.8333 15.8333 14.8333 12Z" fill="#EB001B"/>
<path d="M38.8333 12C38.8333 18.6333 33.4667 24 26.8333 24C24.0333 24 21.4667 23.0333 19.4333 21.4333C22.2333 19.2333 24 15.8333 24 12C24 8.16667 22.2 4.76667 19.4333 2.56667C21.4667 0.966671 24.0333 0 26.8333 0C33.4667 0 38.8333 5.4 38.8333 12Z" fill="#F79E1B"/>
</svg>
