<svg width="27" height="27" viewBox="0 0 27 27" fill="none" xmlns="http://www.w3.org/2000/svg">
<g clip-path="url(#clip0)">
<path d="M20.8328 16.3191C21.27 16.4868 21.4382 17.1399 21.4716 17.4247C21.539 17.9444 21.3881 18.1455 21.2199 18.1455C21.0516 18.1455 20.8161 17.9444 20.5643 17.5424C20.312 17.1399 20.2112 16.6878 20.3459 16.453C20.4295 16.302 20.6139 16.2353 20.8328 16.3191ZM18.2784 18.2126C18.5474 18.2126 18.8499 18.3298 19.1189 18.5641C19.6397 19 19.7912 19.5026 19.5221 19.8713C19.3707 20.0556 19.1189 20.1728 18.8331 20.1728C18.5474 20.1728 18.245 20.0723 18.0433 19.8879C17.5727 19.4859 17.4384 18.8152 17.7403 18.447C17.8584 18.296 18.0433 18.2126 18.2784 18.2126ZM12.3965 23.0547C6.00948 23.0547 0.833313 17.8939 0.833313 11.5271C0.833313 5.16024 6.01 0 12.396 0C18.7825 0 23.9592 5.16076 23.9592 11.5271C23.9592 13.6882 23.3543 15.7161 22.3294 17.4419C22.2954 17.4919 22.2113 17.4752 22.1946 17.4081C21.7913 14.5767 20.0602 13.018 17.5392 12.5493C17.3204 12.5155 17.2869 12.3817 17.5727 12.3483C18.3458 12.2811 19.438 12.2978 20.0095 12.3983C20.043 12.1135 20.0602 11.8119 20.0602 11.5104C20.0602 7.30474 16.6314 3.88645 12.4127 3.88645C8.19455 3.88645 4.76572 7.30474 4.76572 11.5104C4.76572 15.7161 8.19455 19.1344 12.4132 19.1344H12.7658C12.646 18.4541 12.5953 17.7636 12.6143 17.0732C12.6316 16.604 12.7324 16.5368 12.934 16.9055C13.9929 18.7318 15.5056 20.3738 18.4633 21.0274C20.8834 21.5637 23.3036 22.1834 25.9086 25.484C26.1437 25.7689 25.7911 26.0704 25.5221 25.8361C22.8669 23.49 20.4467 22.7193 18.245 22.7193C15.7741 22.7365 14.0942 23.0547 12.3965 23.0547Z" fill="#FF8C00"/>
</g>
<defs>
<clipPath id="clip0">
<rect width="26" height="27" fill="white" transform="translate(0.833313)"/>
</clipPath>
</defs>
</svg>
