<svg width="64" height="20" viewBox="0 0 64 20" fill="none" xmlns="http://www.w3.org/2000/svg">
<path d="M28.1333 19.7115H23.0298L26.2219 0.350952H31.325L28.1333 19.7115Z" fill="#00579F"/>
<path d="M46.6337 0.824255C45.6271 0.432522 44.0305 0 42.0563 0C37.0165 0 33.4675 2.63619 33.4457 6.40515C33.4038 9.18588 35.9867 10.7304 37.9184 11.6575C39.8929 12.605 40.5641 13.2234 40.5641 14.0679C40.544 15.3649 38.9686 15.9628 37.4993 15.9628C35.4617 15.9628 34.37 15.6545 32.7109 14.9329L32.0389 14.6236L31.3247 18.9696C32.5217 19.5045 34.7269 19.9792 37.0165 20C42.3714 20 45.8576 17.4046 45.8989 13.3882C45.9193 11.1842 44.5554 9.49549 41.6151 8.11552C39.8301 7.22968 38.737 6.63236 38.737 5.72598C38.7579 4.902 39.6616 4.05804 41.6765 4.05804C43.3356 4.0167 44.5546 4.40789 45.478 4.79934L45.9396 5.00493L46.6337 0.824255Z" fill="#00579F"/>
<path d="M53.4166 12.8527C53.8369 11.7405 55.4541 7.43582 55.4541 7.43582C55.4329 7.47715 55.8736 6.30305 56.1256 5.58227L56.4822 7.25049C56.4822 7.25049 57.4487 11.8848 57.6585 12.8527C56.8609 12.8527 54.4246 12.8527 53.4166 12.8527ZM59.7161 0.350952H55.7686C54.5513 0.350952 53.6265 0.700802 53.1012 1.9573L45.5208 19.7112H50.8756C50.8756 19.7112 51.7572 17.3217 51.9467 16.807C52.5342 16.807 57.7434 16.807 58.4991 16.807C58.6456 17.4867 59.108 19.7112 59.108 19.7112H63.8333L59.7161 0.350952Z" fill="#00579F"/>
<path d="M18.7672 0.350952L13.7693 13.553L13.2231 10.8755C12.2991 7.78594 9.40119 4.42925 6.16727 2.76021L10.7452 19.691H16.142L24.1637 0.350952H18.7672Z" fill="#00579F"/>
<path d="M9.12825 0.350952H0.917314L0.833313 0.742137C7.23836 2.34876 11.4803 6.22147 13.2231 10.8763L11.4382 1.97838C11.1443 0.741864 10.2412 0.391741 9.12825 0.350952Z" fill="#FAA61A"/>
</svg>
