<svg width="26" height="29" viewBox="0 0 26 29" fill="none" xmlns="http://www.w3.org/2000/svg">
<path d="M21.5744 5.4998C19.2012 3.1209 16.0406 1.8125 12.6818 1.8125C5.74902 1.8125 0.107617 7.45391 0.107617 14.3867C0.107617 16.6014 0.685352 18.765 1.78418 20.6738L0 27.1875L6.6666 25.4373C8.50176 26.4398 10.5691 26.9666 12.6762 26.9666H12.6818C19.609 26.9666 25.375 21.3252 25.375 14.3924C25.375 11.0336 23.9477 7.87871 21.5744 5.4998ZM12.6818 24.8482C10.8014 24.8482 8.96055 24.3441 7.35762 23.3926L6.97812 23.166L3.02461 24.2025L4.07812 20.3453L3.82891 19.9488C2.78105 18.2836 2.23164 16.3635 2.23164 14.3867C2.23164 8.62637 6.92148 3.93652 12.6875 3.93652C15.4799 3.93652 18.1023 5.02402 20.0734 7.00078C22.0445 8.97754 23.2566 11.6 23.251 14.3924C23.251 20.1584 18.4422 24.8482 12.6818 24.8482ZM18.4139 17.0205C18.1023 16.8619 16.5561 16.1029 16.2672 16.001C15.9783 15.8934 15.7688 15.8424 15.5592 16.1596C15.3496 16.4768 14.7492 17.1791 14.5623 17.3943C14.3811 17.6039 14.1941 17.6322 13.8826 17.4736C12.0361 16.5504 10.824 15.8254 9.60625 13.7354C9.2834 13.1803 9.9291 13.2199 10.5295 12.0191C10.6314 11.8096 10.5805 11.6283 10.5012 11.4697C10.4219 11.3111 9.79316 9.76484 9.53262 9.13613C9.27773 8.52441 9.01719 8.60938 8.82461 8.59805C8.64336 8.58672 8.43379 8.58672 8.22422 8.58672C8.01465 8.58672 7.6748 8.66602 7.38594 8.97754C7.09707 9.29473 6.28711 10.0537 6.28711 11.6C6.28711 13.1463 7.41426 14.6416 7.56719 14.8512C7.72578 15.0607 9.78184 18.2326 12.9367 19.5977C14.9305 20.4586 15.7121 20.5322 16.709 20.385C17.315 20.2943 18.5668 19.626 18.8273 18.8896C19.0879 18.1533 19.0879 17.5246 19.0086 17.3943C18.935 17.2527 18.7254 17.1734 18.4139 17.0205Z" fill="#43D854"/>
</svg>
